<svg width="33" height="32" viewBox="0 0 33 32" fill="none" xmlns="http://www.w3.org/2000/svg">
<g clip-path="url(#clip0_113_221)">
<path d="M27.3493 32C26.8561 31.9986 26.368 31.8996 25.9132 31.7085C25.4585 31.5174 25.0462 31.2381 24.7 30.8867L16.5 22.7347L8.29999 30.892C7.77336 31.4263 7.09798 31.7896 6.36188 31.9344C5.62578 32.0792 4.86312 31.999 4.17333 31.704C3.47668 31.4238 2.88072 30.94 2.46327 30.3159C2.04582 29.6917 1.82628 28.9562 1.83332 28.2053V6.66667C1.83332 4.89856 2.5357 3.20286 3.78595 1.95262C5.03619 0.702379 6.73188 0 8.49999 0L24.5 0C25.3755 0 26.2424 0.172438 27.0512 0.50747C27.8601 0.842501 28.595 1.33356 29.214 1.95262C29.8331 2.57168 30.3242 3.30661 30.6592 4.11544C30.9942 4.92428 31.1667 5.79119 31.1667 6.66667V28.2053C31.1741 28.9556 30.9554 29.6907 30.5389 30.3147C30.1225 30.9388 29.5276 31.423 28.832 31.704C28.3624 31.9004 27.8583 32.001 27.3493 32ZM8.49999 2.66667C7.43913 2.66667 6.42171 3.08809 5.67156 3.83824C4.92142 4.58839 4.49999 5.6058 4.49999 6.66667V28.2053C4.49951 28.4275 4.56488 28.6449 4.68786 28.8299C4.81083 29.0149 4.98589 29.1594 5.19091 29.245C5.39594 29.3306 5.62173 29.3535 5.83978 29.3109C6.05783 29.2682 6.25834 29.1619 6.41599 29.0053L15.5667 19.9107C15.8165 19.6623 16.1544 19.5229 16.5067 19.5229C16.8589 19.5229 17.1968 19.6623 17.4467 19.9107L26.5867 29.0027C26.7443 29.1592 26.9448 29.2655 27.1629 29.3082C27.3809 29.3509 27.6067 29.3279 27.8117 29.2423C28.0168 29.1567 28.1918 29.0123 28.3148 28.8272C28.4378 28.6422 28.5031 28.4248 28.5027 28.2027V6.66667C28.5027 5.6058 28.0812 4.58839 27.3311 3.83824C26.5809 3.08809 25.5635 2.66667 24.5027 2.66667H8.49999Z" fill="black"/>
</g>
<defs>
<clipPath id="clip0_113_221">
<rect width="32" height="32" fill="white" transform="translate(0.5)"/>
</clipPath>
</defs>
</svg>
