<svg width="40" height="40" viewBox="0 0 40 40" fill="none" xmlns="http://www.w3.org/2000/svg">
<g clip-path="url(#clip0_212_23)">
<path d="M30.4916 11.8583C31.1405 11.2093 31.1405 10.1572 30.4916 9.50825C29.8427 8.85932 28.7905 8.85932 28.1416 9.50825L19.9999 17.6499L11.8583 9.50825C11.2093 8.85932 10.1572 8.85932 9.50825 9.50825C8.85932 10.1572 8.85932 11.2093 9.50825 11.8583L17.6499 19.9999L9.50825 28.1416C8.85932 28.7905 8.85932 29.8427 9.50825 30.4916C10.1572 31.1405 11.2093 31.1405 11.8583 30.4916L19.9999 22.3499L28.1416 30.4916C28.7905 31.1405 29.8427 31.1405 30.4916 30.4916C31.1405 29.8427 31.1405 28.7905 30.4916 28.1416L22.3499 19.9999L30.4916 11.8583Z" fill="white"/>
</g>
<defs>
<clipPath id="clip0_212_23">
<rect width="40" height="40" fill="white"/>
</clipPath>
</defs>
</svg>
