<svg width="32" height="32" viewBox="0 0 32 32" fill="none" xmlns="http://www.w3.org/2000/svg">
<path d="M30.6667 5.33333H22.6667V2.66667C22.6667 1.196 21.4707 0 20 0H12C10.5293 0 9.33334 1.196 9.33334 2.66667V5.33333H1.33334V8H3.52534L5.79601 28.4413C6.02134 30.4693 7.73068 32 9.77201 32H22.1773C24.2187 32 25.928 30.4707 26.152 28.4413L28.4227 8H30.6653L30.6667 5.33333ZM12 2.66667H20V5.33333H12V2.66667ZM23.5013 28.1467C23.4267 28.8227 22.8573 29.3333 22.176 29.3333H9.77201C9.09201 29.3333 8.52134 28.8227 8.44668 28.1467L6.20801 8H25.7413L23.5027 28.1467H23.5013ZM10.724 22.0573L14.1147 18.6667L10.724 15.276L12.6093 13.3907L16 16.7813L19.3907 13.3907L21.276 15.276L17.8853 18.6667L21.276 22.0573L19.3907 23.9427L16 20.552L12.6093 23.9427L10.724 22.0573Z" fill="#E93B3B"/>
</svg>
