<svg width="14" height="15" viewBox="0 0 14 15" fill="none" xmlns="http://www.w3.org/2000/svg">
<path d="M12.4863 5.23699L9.23066 2.01507L10.3031 0.941096C10.5968 0.647032 10.9576 0.5 11.3855 0.5C11.813 0.5 12.1735 0.647032 12.4671 0.941096L13.5396 2.01507C13.8332 2.30913 13.9864 2.66405 13.9992 3.07984C14.012 3.49511 13.8715 3.84977 13.5779 4.14384L12.4863 5.23699ZM0.76603 14.5C0.548988 14.5 0.367184 14.4264 0.220617 14.2791C0.073539 14.1323 0 13.9502 0 13.7329V11.5658C0 11.4635 0.0191508 11.3645 0.0574523 11.2689C0.0957538 11.1727 0.153206 11.0863 0.229809 11.0096L8.11992 3.10822L11.3755 6.36849L3.48544 14.2699C3.40883 14.3466 3.32278 14.4041 3.22729 14.4425C3.13128 14.4808 3.0322 14.5 2.93007 14.5H0.76603Z" fill="#3C3C3C"/>
</svg>
