<svg width="512" height="512" viewBox="0 0 512 512" fill="none" xmlns="http://www.w3.org/2000/svg">
<g clip-path="url(#clip0_18_14)">
<path d="M256 96C149.333 96 58.24 162.347 21.3333 256C58.24 349.653 149.333 416 256 416C362.667 416 453.76 349.653 490.667 256C453.76 162.347 362.667 96 256 96ZM256 362.667C197.12 362.667 149.333 314.88 149.333 256C149.333 197.12 197.12 149.333 256 149.333C314.88 149.333 362.667 197.12 362.667 256C362.667 314.88 314.88 362.667 256 362.667ZM256 192C220.587 192 192 220.587 192 256C192 291.413 220.587 320 256 320C291.413 320 320 291.413 320 256C320 220.587 291.413 192 256 192Z" fill="black"/>
</g>
<defs>
<clipPath id="clip0_18_14">
<rect width="512" height="512" fill="white"/>
</clipPath>
</defs>
</svg>
