<svg width="33" height="32" viewBox="0 0 33 32" fill="none" xmlns="http://www.w3.org/2000/svg">
<g clip-path="url(#clip0_5_186)">
<path d="M31.328 12.0919L21.2147 1.97728C19.963 0.729263 18.2676 0.0284424 16.5 0.0284424C14.7325 0.0284424 13.037 0.729263 11.7853 1.97728L1.672 12.0919C1.29923 12.4623 1.00369 12.903 0.802511 13.3885C0.601328 13.8739 0.498504 14.3945 0.500001 14.9199V28.0093C0.500001 29.0701 0.921428 30.0876 1.67157 30.8377C2.42172 31.5879 3.43914 32.0093 4.5 32.0093H28.5C29.5609 32.0093 30.5783 31.5879 31.3284 30.8377C32.0786 30.0876 32.5 29.0701 32.5 28.0093V14.9199C32.5015 14.3945 32.3987 13.8739 32.1975 13.3885C31.9963 12.903 31.7008 12.4623 31.328 12.0919ZM20.5 29.3426H12.5V24.0973C12.5 23.0364 12.9214 22.019 13.6716 21.2689C14.4217 20.5187 15.4391 20.0973 16.5 20.0973C17.5609 20.0973 18.5783 20.5187 19.3284 21.2689C20.0786 22.019 20.5 23.0364 20.5 24.0973V29.3426ZM29.8333 28.0093C29.8333 28.3629 29.6929 28.702 29.4428 28.9521C29.1928 29.2021 28.8536 29.3426 28.5 29.3426H23.1667V24.0973C23.1667 22.3292 22.4643 20.6335 21.214 19.3832C19.9638 18.133 18.2681 17.4306 16.5 17.4306C14.7319 17.4306 13.0362 18.133 11.786 19.3832C10.5357 20.6335 9.83333 22.3292 9.83333 24.0973V29.3426H4.5C4.14638 29.3426 3.80724 29.2021 3.55719 28.9521C3.30714 28.702 3.16667 28.3629 3.16667 28.0093V14.9199C3.1679 14.5666 3.30825 14.2279 3.55733 13.9773L13.6707 3.86661C14.4223 3.11852 15.4396 2.69853 16.5 2.69853C17.5604 2.69853 18.5777 3.11852 19.3293 3.86661L29.4427 13.9813C29.6908 14.2309 29.8311 14.568 29.8333 14.9199V28.0093Z" fill="#3B73E8"/>
</g>
<defs>
<clipPath id="clip0_5_186">
<rect width="32" height="32" fill="white" transform="translate(0.5)"/>
</clipPath>
</defs>
</svg>
