<svg width="40" height="40" viewBox="0 0 40 40" fill="none" xmlns="http://www.w3.org/2000/svg">
<g clip-path="url(#clip0_7_442)">
<path d="M20 23.3333C22.7667 23.3333 24.9833 21.0999 24.9833 18.3333L25 8.33325C25 5.56659 22.7667 3.33325 20 3.33325C17.2333 3.33325 15 5.56659 15 8.33325V18.3333C15 21.0999 17.2333 23.3333 20 23.3333ZM28.8333 18.3333C28.8333 23.3333 24.6 26.8333 20 26.8333C15.4 26.8333 11.1667 23.3333 11.1667 18.3333H8.33334C8.33334 24.0166 12.8667 28.7166 18.3333 29.5333V34.9999H21.6667V29.5333C27.1333 28.7333 31.6667 24.0333 31.6667 18.3333H28.8333Z" fill="#3B73E8"/>
</g>
<defs>
<clipPath id="clip0_7_442">
<rect width="40" height="40" fill="white"/>
</clipPath>
</defs>
</svg>
