<svg width="40" height="40" viewBox="0 0 40 40" fill="none" xmlns="http://www.w3.org/2000/svg">
<g clip-path="url(#clip0_7_431)">
<path d="M31.6667 18.3333H28.8333C28.8333 19.5666 28.5667 20.7166 28.1167 21.7499L30.1667 23.7999C31.1 22.1666 31.6667 20.3166 31.6667 18.3333ZM24.9667 18.6166C24.9667 18.5166 25 18.4333 25 18.3333V8.33325C25 5.56659 22.7667 3.33325 20 3.33325C17.2333 3.33325 15 5.56659 15 8.33325V8.63325L24.9667 18.6166ZM7.11667 4.99992L5 7.11659L15.0167 17.1333V18.3333C15.0167 21.0999 17.2333 23.3333 20 23.3333C20.3667 23.3333 20.7333 23.2833 21.0833 23.1999L23.85 25.9666C22.6667 26.5166 21.35 26.8333 20 26.8333C15.4 26.8333 11.1667 23.3333 11.1667 18.3333H8.33333C8.33333 24.0166 12.8667 28.7166 18.3333 29.5333V34.9999H21.6667V29.5333C23.1833 29.3166 24.6167 28.7833 25.9 28.0333L32.8833 34.9999L35 32.8833L7.11667 4.99992Z" fill="#E93B3B"/>
</g>
<defs>
<clipPath id="clip0_7_431">
<rect width="40" height="40" fill="white"/>
</clipPath>
</defs>
</svg>
