<svg width="21" height="20" viewBox="0 0 21 20" fill="none" xmlns="http://www.w3.org/2000/svg">
<path d="M20.5 10C20.5 10.789 19.8604 11.4286 19.0714 11.4286H11.9286V18.5714C11.9286 19.3604 11.289 20 10.5 20C9.71102 20 9.07143 19.3604 9.07143 18.5714V11.4286H1.92857C1.13959 11.4286 0.5 10.789 0.5 10C0.5 9.21102 1.13959 8.57143 1.92857 8.57143H9.07143V1.42857C9.07143 0.639592 9.71102 0 10.5 0C11.289 0 11.9286 0.639594 11.9286 1.42857V8.57143H19.0714C19.8604 8.57143 20.5 9.21102 20.5 10Z" fill="#F0F0F0"/>
</svg>
