<svg width="33" height="32" viewBox="0 0 33 32" fill="none" xmlns="http://www.w3.org/2000/svg">
<g clip-path="url(#clip0_5_188)">
<path d="M28.5 32H25.8333V25.276C25.8323 24.2306 25.4165 23.2284 24.6774 22.4892C23.9382 21.7501 22.936 21.3344 21.8907 21.3333H11.1093C10.064 21.3344 9.06178 21.7501 8.32262 22.4892C7.58345 23.2284 7.16773 24.2306 7.16667 25.276V32H4.5V25.276C4.50212 23.5237 5.19914 21.8438 6.43817 20.6048C7.6772 19.3658 9.35708 18.6687 11.1093 18.6666H21.8907C23.6429 18.6687 25.3228 19.3658 26.5618 20.6048C27.8009 21.8438 28.4979 23.5237 28.5 25.276V32Z" fill="#3B73E8"/>
<path d="M16.5 16C14.9178 16 13.371 15.5308 12.0554 14.6518C10.7398 13.7727 9.71447 12.5233 9.10897 11.0615C8.50347 9.59966 8.34504 7.99113 8.65372 6.43928C8.9624 4.88743 9.72433 3.46197 10.8431 2.34315C11.962 1.22433 13.3874 0.462403 14.9393 0.153721C16.4911 -0.15496 18.0997 0.00346629 19.5615 0.608967C21.0233 1.21447 22.2727 2.23985 23.1518 3.55544C24.0308 4.87103 24.5 6.41775 24.5 8C24.4979 10.1211 23.6544 12.1547 22.1545 13.6545C20.6547 15.1544 18.6211 15.9979 16.5 16ZM16.5 2.66667C15.4452 2.66667 14.414 2.97946 13.537 3.5655C12.6599 4.15153 11.9763 4.98449 11.5726 5.95903C11.169 6.93357 11.0634 8.00592 11.2691 9.04049C11.4749 10.0751 11.9829 11.0254 12.7288 11.7712C13.4746 12.5171 14.425 13.0251 15.4595 13.2309C16.4941 13.4366 17.5664 13.331 18.541 12.9274C19.5155 12.5237 20.3485 11.8401 20.9345 10.963C21.5205 10.086 21.8333 9.05484 21.8333 8C21.8333 6.58552 21.2714 5.22896 20.2712 4.22877C19.271 3.22857 17.9145 2.66667 16.5 2.66667Z" fill="#3B73E8"/>
</g>
<defs>
<clipPath id="clip0_5_188">
<rect width="32" height="32" fill="white" transform="translate(0.5)"/>
</clipPath>
</defs>
</svg>
